<svg fill="none" height="45" viewBox="0 0 209 45" width="209" xmlns="http://www.w3.org/2000/svg"><path d="m0 0h209v45h-209z" fill="#fff"/><g fill="#181919"><path d="m9.27 18.04c.69.54 1.44 1.86 1.38 4.5l-.18 8.46h4.74c-.75-.63-1.41-2.37-1.41-5.25v-2.82c.03-2.94 3.09-4.14 5.43-3.75l.72-3.42c-3.54.39-5.55 2.28-6.15 5.79v-5.79l-4.53 2.16z"/><path d="m20.4476 23.41c0 4.35 3.51 7.83 7.74 7.83 4.17 0 7.59-3.39 7.59-7.68 0-4.32-3.51-7.8-7.71-7.8-4.17 0-7.62 3.36-7.62 7.65zm2.91-2.67c0-2.34 1.05-4.38 3.12-4.38 3.36 0 6.42 5.88 6.42 9.84 0 2.43-1.08 4.47-3.18 4.44-3.33-.12-6.36-5.94-6.36-9.9z"/><path d="m49.1037 26.83c-.09-2.43-2.16-3.66-5.07-5.04-2.7-1.23-4.17-2.07-4.23-3.6-.06-1.32 1.23-2.13 2.85-2.01 2.43.18 4.29 2.22 5.43 5.16h.06l-.24-4.59c-1.02-.48-2.52-.96-4.47-.99-3.45-.09-6.03 1.26-5.97 4.14.09 2.58 2.25 3.72 5.25 5.22 2.07 1.02 3.93 1.8 3.99 3.3.09 1.56-1.17 2.43-3.15 2.4-1.98-.06-4.32-1.8-6.15-5.58h-.06l.3 5.13c1.23.42 3.21.87 5.73.87 3.03 0 5.79-1.53 5.73-4.41z"/><path d="m65.6243 23.74c-.45 2.82-2.73 4.74-5.88 4.74-3.3 0-6.03-2.37-6.03-5.91 0-.36.03-.72.06-1.08h10.5c0-3.69-2.76-5.73-5.97-5.73-4.26 0-7.77 3.24-7.77 7.8 0 4.38 3.42 7.68 7.71 7.68 4.2 0 7.38-3.48 7.44-7.5zm-7.23-7.62c1.68 0 2.82.99 2.82 2.28 0 1.71-1.08 2.79-4.17 2.79h-3.24c.45-2.97 2.25-5.07 4.59-5.07z"/><path d="m74.1743 18.13c.69.54 1.44 1.86 1.38 4.5l-.18 8.37h4.71c-.72-.63-1.41-2.37-1.41-5.25v-7.2c.72-.9 1.71-1.56 2.82-1.56 2.22 0 2.79 1.71 2.73 5.04l-.18 8.97h4.65c-.81-.6-1.35-2.79-1.35-5.76v-3.6c0-1.05-.09-2.01-.33-2.85.72-.99 1.5-1.8 2.7-1.8 1.71 0 2.31 1.56 2.82 4.32l1.86 9.69h4.71c-.75-.6-1.62-1.77-2.19-4.68l-.96-4.86c-.81-3.96-1.95-5.7-4.68-5.7-2.19 0-3.54 1.35-4.35 2.7-.57-1.68-1.74-2.7-3.78-2.7-1.89 0-3.51 1.14-4.47 2.4v-2.4l-4.5 2.22z"/><path d="m98.9163 23.41c0 4.35 3.5097 7.83 7.7397 7.83 4.17 0 7.59-3.39 7.59-7.68 0-4.32-3.51-7.8-7.71-7.8-4.17 0-7.6197 3.36-7.6197 7.65zm2.9097-2.67c0-2.34 1.05-4.38 3.12-4.38 3.36 0 6.42 5.88 6.42 9.84 0 2.43-1.08 4.47-3.18 4.44-3.33-.12-6.36-5.94-6.36-9.9z"/><path d="m127.572 26.83c-.09-2.43-2.16-3.66-5.07-5.04-2.7-1.23-4.17-2.07-4.23-3.6-.06-1.32 1.23-2.13 2.85-2.01 2.43.18 4.29 2.22 5.43 5.16h.06l-.24-4.59c-1.02-.48-2.52-.96-4.47-.99-3.45-.09-6.03 1.26-5.97 4.14.09 2.58 2.25 3.72 5.25 5.22 2.07 1.02 3.93 1.8 3.99 3.3.09 1.56-1.17 2.43-3.15 2.4-1.98-.06-4.32-1.8-6.15-5.58h-.06l.3 5.13c1.23.42 3.21.87 5.73.87 3.03 0 5.79-1.53 5.73-4.41z"/><path d="m140.799 26.83c-.09-2.43-2.16-3.66-5.07-5.04-2.7-1.23-4.17-2.07-4.23-3.6-.06-1.32 1.23-2.13 2.85-2.01 2.43.18 4.29 2.22 5.43 5.16h.06l-.24-4.59c-1.02-.48-2.52-.96-4.47-.99-3.45-.09-6.03 1.26-5.97 4.14.09 2.58 2.25 3.72 5.25 5.22 2.07 1.02 3.93 1.8 3.99 3.3.09 1.56-1.17 2.43-3.15 2.4-1.98-.06-4.32-1.8-6.15-5.58h-.06l.3 5.13c1.23.42 3.21.87 5.73.87 3.03 0 5.79-1.53 5.73-4.41z"/><path d="m142.17 18.13c.69.54 1.44 1.86 1.38 4.5l-.18 8.37h4.71c-.72-.63-1.41-2.37-1.41-5.25v-7.2c.72-.9 1.71-1.56 2.82-1.56 2.22 0 2.79 1.71 2.73 5.04l-.18 8.97h4.65c-.81-.6-1.35-2.79-1.35-5.76v-3.6c0-1.05-.09-2.01-.33-2.85.72-.99 1.5-1.8 2.7-1.8 1.71 0 2.31 1.56 2.82 4.32l1.86 9.69h4.71c-.75-.6-1.62-1.77-2.19-4.68l-.96-4.86c-.81-3.96-1.95-5.7-4.68-5.7-2.19 0-3.54 1.35-4.35 2.7-.57-1.68-1.74-2.7-3.78-2.7-1.89 0-3.51 1.14-4.47 2.4v-2.4l-4.5 2.22z"/><path d="m167.409 26.05c0 3.03 2.25 5.19 5.37 5.19 2.25 0 3.63-.96 4.62-2.76l.84 2.52h4.17c-.51-.45-1.05-1.38-1.62-2.88-.63-1.68-2.79-7.62-3.6-9.63-.87-2.16-2.55-2.73-3.93-2.73-1.05 0-2.16.33-3 .87l.03.06c1.02-.24 2.25-.09 2.94.93.84 1.14 2.64 6.45 4.02 10.5-.69.75-1.68 1.08-2.61 1.08-2.67 0-4.08-2.19-4.08-5.01 0-2.85 1.68-4.83 2.67-5.64-3.54 1.53-5.82 4.11-5.82 7.5z"/><path d="m182.628 18.1c.69.54 1.44 1.89 1.38 4.5l-.18 8.4h4.74c-.75-.63-1.41-2.37-1.41-5.25v-7.35c.75-.81 1.5-1.44 2.67-1.38 1.47.06 2.04 1.62 2.55 4.29l1.86 9.69h4.71c-.75-.6-1.62-1.77-2.19-4.68l-1.05-5.1c-.81-3.99-1.83-5.46-4.47-5.46-1.8 0-3.12.96-4.08 2.22v-2.22l-4.53 2.22z"/></g></svg>